<svg xmlns="http://www.w3.org/2000/svg" xmlns:xlink="http://www.w3.org/1999/xlink" width="100%" height="100%" version="1.1" viewBox="0 0 36 14" xml:space="preserve" style="fill-rule:evenodd;clip-rule:evenodd;stroke-linejoin:round;stroke-miterlimit:1.41421"><path d="M0,0l0,12l10,0l0,2l8,0l0,-2l18,0l0,-12" style="fill:#cb3837;fill-rule:nonzero"/><path d="M2,2l0,8l4,0l0,-6l2,0l0,6l2,0l0,-8l2,0l0,10l4,0l0,-8l2,0l0,4l-2,0l0,2l4,0l0,-8l2,0l0,8l4,0l0,-6l2,0l0,6l2,0l0,-6l2,0l0,6l2,0l0,-8" style="fill:#fff;fill-rule:nonzero"/></svg>